<svg xmlns="http://www.w3.org/2000/svg" xmlns:xlink="http://www.w3.org/1999/xlink" width="1366" zoomAndPan="magnify" viewBox="0 0 1024.5 576" height="768" preserveAspectRatio="xMidYMid meet" version="1.0"><defs><g/><clipPath id="9dff04567b"><path d="M 272.945312 191.671875 L 695 191.671875 L 695 377.667969 L 272.945312 377.667969 Z M 272.945312 191.671875 " clip-rule="nonzero"/></clipPath><clipPath id="c8e79a4d12"><path d="M 310.425781 191.671875 L 656.960938 191.671875 C 666.902344 191.671875 676.4375 195.621094 683.464844 202.648438 C 690.496094 209.679688 694.445312 219.210938 694.445312 229.152344 L 694.445312 340.1875 C 694.445312 350.128906 690.496094 359.660156 683.464844 366.691406 C 676.4375 373.71875 666.902344 377.667969 656.960938 377.667969 L 310.425781 377.667969 C 300.484375 377.667969 290.949219 373.71875 283.921875 366.691406 C 276.894531 359.660156 272.945312 350.128906 272.945312 340.1875 L 272.945312 229.152344 C 272.945312 219.210938 276.894531 209.679688 283.921875 202.648438 C 290.949219 195.621094 300.484375 191.671875 310.425781 191.671875 Z M 310.425781 191.671875 " clip-rule="nonzero"/></clipPath></defs><g clip-path="url(#9dff04567b)"><g clip-path="url(#c8e79a4d12)"><path fill="#ffffff" d="M 272.945312 191.671875 L 694.34375 191.671875 L 694.34375 377.667969 L 272.945312 377.667969 Z M 272.945312 191.671875 " fill-opacity="1" fill-rule="nonzero"/></g></g><g fill="#000000" fill-opacity="1"><g transform="translate(333.078513, 310.113819)"><g><path d="M 32.921875 -54.265625 C 32.921875 -52.359375 32.265625 -50.628906 30.953125 -49.078125 C 29.648438 -47.523438 28.0625 -46.132812 26.1875 -44.90625 C 24.3125 -43.675781 22.34375 -42.609375 20.28125 -41.703125 C 18.226562 -40.804688 16.453125 -40.054688 14.953125 -39.453125 C 14.953125 -38.398438 14.925781 -37.320312 14.875 -36.21875 C 14.820312 -35.113281 14.75 -34.015625 14.65625 -32.921875 C 16.257812 -33.722656 18.0625 -34.472656 20.0625 -35.171875 C 22.070312 -35.867188 23.976562 -36.21875 25.78125 -36.21875 C 27.226562 -36.21875 28.414062 -35.914062 29.34375 -35.3125 C 30.269531 -34.71875 30.734375 -33.664062 30.734375 -32.15625 C 30.734375 -30.507812 30.144531 -29.035156 28.96875 -27.734375 C 27.789062 -26.429688 26.375 -25.273438 24.71875 -24.265625 C 23.070312 -23.265625 21.34375 -22.414062 19.53125 -21.71875 C 17.726562 -21.019531 16.203125 -20.46875 14.953125 -20.0625 C 14.953125 -18.40625 14.925781 -16.765625 14.875 -15.140625 C 14.820312 -13.515625 14.75 -11.898438 14.65625 -10.296875 C 14.601562 -9.492188 14.515625 -8.488281 14.390625 -7.28125 C 14.265625 -6.082031 14.015625 -4.921875 13.640625 -3.796875 C 13.265625 -2.671875 12.722656 -1.691406 12.015625 -0.859375 C 11.316406 -0.0351562 10.414062 0.375 9.3125 0.375 C 8.257812 0.375 7.359375 -0.132812 6.609375 -1.15625 C 5.859375 -2.1875 5.21875 -3.503906 4.6875 -5.109375 C 4.164062 -6.710938 3.742188 -8.503906 3.421875 -10.484375 C 3.097656 -12.460938 2.847656 -14.398438 2.671875 -16.296875 C 2.492188 -18.203125 2.390625 -19.957031 2.359375 -21.5625 C 2.335938 -23.164062 2.328125 -24.394531 2.328125 -25.25 C 2.328125 -25.90625 2.335938 -26.867188 2.359375 -28.140625 C 2.390625 -29.421875 2.414062 -30.835938 2.4375 -32.390625 C 2.46875 -33.941406 2.519531 -35.566406 2.59375 -37.265625 C 2.664062 -38.972656 2.75 -40.585938 2.84375 -42.109375 C 2.945312 -43.640625 3.085938 -44.992188 3.265625 -46.171875 C 3.441406 -47.359375 3.65625 -48.222656 3.90625 -48.765625 C 4.457031 -49.867188 5.769531 -50.957031 7.84375 -52.03125 C 9.925781 -53.113281 12.242188 -54.066406 14.796875 -54.890625 C 17.359375 -55.722656 19.851562 -56.398438 22.28125 -56.921875 C 24.707031 -57.453125 26.570312 -57.71875 27.875 -57.71875 C 28.476562 -57.71875 29.066406 -57.675781 29.640625 -57.59375 C 30.222656 -57.519531 30.765625 -57.359375 31.265625 -57.109375 C 31.765625 -56.859375 32.164062 -56.507812 32.46875 -56.0625 C 32.769531 -55.613281 32.921875 -55.015625 32.921875 -54.265625 Z M 32.921875 -54.265625 "/></g></g></g><g fill="#000000" fill-opacity="1"><g transform="translate(363.364344, 310.113819)"><g><path d="M 40.203125 -11.125 C 40.203125 -10.125 40.113281 -8.921875 39.9375 -7.515625 C 39.757812 -6.109375 39.421875 -4.765625 38.921875 -3.484375 C 38.421875 -2.210938 37.742188 -1.140625 36.890625 -0.265625 C 36.046875 0.609375 34.921875 1.046875 33.515625 1.046875 C 31.660156 1.046875 30.269531 0.375 29.34375 -0.96875 C 28.414062 -2.320312 27.75 -3.9375 27.34375 -5.8125 C 26.945312 -7.695312 26.710938 -9.613281 26.640625 -11.5625 C 26.566406 -13.519531 26.503906 -15.078125 26.453125 -16.234375 C 22.847656 -15.628906 19.289062 -15.101562 15.78125 -14.65625 C 15.675781 -13.5 15.460938 -12.066406 15.140625 -10.359375 C 14.816406 -8.660156 14.316406 -7.019531 13.640625 -5.4375 C 12.960938 -3.863281 12.082031 -2.5 11 -1.34375 C 9.925781 -0.195312 8.613281 0.375 7.0625 0.375 C 5.863281 0.375 4.925781 -0.0625 4.25 -0.9375 C 3.570312 -1.8125 3.054688 -2.847656 2.703125 -4.046875 C 2.347656 -5.253906 2.132812 -6.492188 2.0625 -7.765625 C 1.988281 -9.046875 1.953125 -10.113281 1.953125 -10.96875 C 1.953125 -13.820312 2.175781 -16.640625 2.625 -19.421875 C 3.082031 -22.203125 3.609375 -24.972656 4.203125 -27.734375 C 4.503906 -29.179688 4.90625 -30.878906 5.40625 -32.828125 C 5.90625 -34.785156 6.519531 -36.804688 7.25 -38.890625 C 7.976562 -40.972656 8.828125 -43.023438 9.796875 -45.046875 C 10.773438 -47.078125 11.890625 -48.894531 13.140625 -50.5 C 14.398438 -52.101562 15.832031 -53.40625 17.4375 -54.40625 C 19.039062 -55.40625 20.816406 -55.90625 22.765625 -55.90625 C 24.671875 -55.90625 26.320312 -55.476562 27.71875 -54.625 C 29.125 -53.78125 30.351562 -52.65625 31.40625 -51.25 C 32.457031 -49.84375 33.332031 -48.25 34.03125 -46.46875 C 34.738281 -44.695312 35.328125 -42.894531 35.796875 -41.0625 C 36.273438 -39.238281 36.675781 -37.445312 37 -35.6875 C 37.332031 -33.9375 37.625 -32.382812 37.875 -31.03125 C 38.53125 -27.78125 39.082031 -24.488281 39.53125 -21.15625 C 39.976562 -17.820312 40.203125 -14.476562 40.203125 -11.125 Z M 25.703125 -29.390625 C 25.703125 -29.984375 25.660156 -30.96875 25.578125 -32.34375 C 25.503906 -33.726562 25.34375 -35.109375 25.09375 -36.484375 C 24.84375 -37.859375 24.453125 -39.082031 23.921875 -40.15625 C 23.398438 -41.238281 22.691406 -41.78125 21.796875 -41.78125 C 21.296875 -41.78125 20.816406 -41.441406 20.359375 -40.765625 C 19.910156 -40.085938 19.507812 -39.234375 19.15625 -38.203125 C 18.8125 -37.179688 18.5 -36.046875 18.21875 -34.796875 C 17.945312 -33.546875 17.707031 -32.34375 17.5 -31.1875 C 17.300781 -30.03125 17.148438 -28.988281 17.046875 -28.0625 C 16.953125 -27.132812 16.878906 -26.472656 16.828125 -26.078125 C 19.835938 -26.328125 22.796875 -26.703125 25.703125 -27.203125 Z M 25.703125 -29.390625 "/></g></g></g><g fill="#000000" fill-opacity="1"><g transform="translate(406.200416, 310.113819)"><g><path d="M 45.984375 -32.234375 C 45.984375 -31.128906 45.929688 -29.5625 45.828125 -27.53125 C 45.734375 -25.507812 45.546875 -23.28125 45.265625 -20.84375 C 44.992188 -18.414062 44.609375 -15.9375 44.109375 -13.40625 C 43.609375 -10.882812 42.957031 -8.59375 42.15625 -6.53125 C 41.351562 -4.476562 40.375 -2.785156 39.21875 -1.453125 C 38.070312 -0.128906 36.695312 0.53125 35.09375 0.53125 C 33.59375 0.53125 32.210938 0.09375 30.953125 -0.78125 C 29.703125 -1.664062 28.578125 -2.742188 27.578125 -4.015625 C 26.578125 -5.296875 25.703125 -6.660156 24.953125 -8.109375 C 24.203125 -9.566406 23.578125 -10.894531 23.078125 -12.09375 C 22.023438 -14.65625 20.972656 -17.175781 19.921875 -19.65625 C 18.867188 -22.132812 17.863281 -24.648438 16.90625 -27.203125 L 16.90625 -25.09375 C 16.90625 -22.945312 16.890625 -20.804688 16.859375 -18.671875 C 16.835938 -16.546875 16.675781 -14.429688 16.375 -12.328125 C 16.28125 -11.472656 16.171875 -10.484375 16.046875 -9.359375 C 15.921875 -8.234375 15.734375 -7.117188 15.484375 -6.015625 C 15.234375 -4.910156 14.867188 -3.878906 14.390625 -2.921875 C 13.910156 -1.972656 13.269531 -1.273438 12.46875 -0.828125 C 12.019531 -0.578125 11.609375 -0.425781 11.234375 -0.375 C 10.859375 -0.320312 10.445312 -0.25 10 -0.15625 L 9.765625 -0.15625 C 8.617188 -0.15625 7.644531 -0.539062 6.84375 -1.3125 C 6.039062 -2.09375 5.363281 -3.09375 4.8125 -4.3125 C 4.257812 -5.539062 3.816406 -6.921875 3.484375 -8.453125 C 3.160156 -9.984375 2.910156 -11.488281 2.734375 -12.96875 C 2.566406 -14.445312 2.457031 -15.8125 2.40625 -17.0625 C 2.351562 -18.3125 2.328125 -19.3125 2.328125 -20.0625 C 2.328125 -21.21875 2.375 -22.910156 2.46875 -25.140625 C 2.570312 -27.367188 2.785156 -29.832031 3.109375 -32.53125 C 3.441406 -35.238281 3.867188 -38.019531 4.390625 -40.875 C 4.921875 -43.738281 5.609375 -46.332031 6.453125 -48.65625 C 7.304688 -50.988281 8.332031 -52.894531 9.53125 -54.375 C 10.738281 -55.851562 12.144531 -56.59375 13.75 -56.59375 C 15.300781 -56.59375 16.691406 -55.988281 17.921875 -54.78125 C 19.148438 -53.582031 20.238281 -52.15625 21.1875 -50.5 C 22.144531 -48.84375 22.945312 -47.113281 23.59375 -45.3125 C 24.25 -43.507812 24.800781 -42.007812 25.25 -40.8125 C 26.101562 -38.457031 26.929688 -36.113281 27.734375 -33.78125 C 28.535156 -31.445312 29.3125 -29.078125 30.0625 -26.671875 C 30.113281 -26.578125 30.210938 -26.300781 30.359375 -25.84375 C 30.503906 -25.394531 30.679688 -24.894531 30.890625 -24.34375 C 31.085938 -23.75 31.335938 -23.070312 31.640625 -22.3125 C 31.640625 -22.96875 31.625 -23.429688 31.59375 -23.703125 C 31.570312 -23.984375 31.5625 -24.234375 31.5625 -24.453125 C 31.5625 -24.679688 31.5625 -24.96875 31.5625 -25.3125 C 31.5625 -25.664062 31.5625 -26.222656 31.5625 -26.984375 C 31.507812 -28.628906 31.46875 -30.28125 31.4375 -31.9375 C 31.414062 -33.59375 31.40625 -35.222656 31.40625 -36.828125 C 31.40625 -37.523438 31.414062 -38.5 31.4375 -39.75 C 31.46875 -41.007812 31.546875 -42.351562 31.671875 -43.78125 C 31.796875 -45.207031 31.984375 -46.644531 32.234375 -48.09375 C 32.484375 -49.550781 32.847656 -50.867188 33.328125 -52.046875 C 33.804688 -53.222656 34.40625 -54.1875 35.125 -54.9375 C 35.851562 -55.6875 36.742188 -56.0625 37.796875 -56.0625 C 39.046875 -56.0625 40.125 -55.582031 41.03125 -54.625 C 41.9375 -53.675781 42.6875 -52.460938 43.28125 -50.984375 C 43.882812 -49.503906 44.359375 -47.847656 44.703125 -46.015625 C 45.054688 -44.191406 45.332031 -42.40625 45.53125 -40.65625 C 45.738281 -38.90625 45.863281 -37.273438 45.90625 -35.765625 C 45.957031 -34.265625 45.984375 -33.085938 45.984375 -32.234375 Z M 45.984375 -32.234375 "/></g></g></g><g fill="#000000" fill-opacity="1"><g transform="translate(454.898266, 310.113819)"><g><path d="M 37.125 -40.28125 C 37.125 -37.570312 36.535156 -34.914062 35.359375 -32.3125 C 34.179688 -29.707031 32.613281 -27.363281 30.65625 -25.28125 C 28.707031 -23.207031 26.476562 -21.503906 23.96875 -20.171875 C 21.46875 -18.847656 18.890625 -18.109375 16.234375 -17.953125 C 16.179688 -17.054688 16.140625 -15.914062 16.109375 -14.53125 C 16.085938 -13.15625 16 -11.71875 15.84375 -10.21875 C 15.695312 -8.71875 15.484375 -7.210938 15.203125 -5.703125 C 14.929688 -4.203125 14.53125 -2.847656 14 -1.640625 C 13.476562 -0.441406 12.804688 0.53125 11.984375 1.28125 C 11.160156 2.03125 10.144531 2.40625 8.9375 2.40625 C 7.539062 2.40625 6.425781 1.941406 5.59375 1.015625 C 4.769531 0.0859375 4.144531 -1.023438 3.71875 -2.328125 C 3.289062 -3.628906 3 -4.992188 2.84375 -6.421875 C 2.695312 -7.847656 2.601562 -9.0625 2.5625 -10.0625 C 2.457031 -11.519531 2.390625 -12.945312 2.359375 -14.34375 C 2.335938 -15.75 2.328125 -17.179688 2.328125 -18.640625 C 2.328125 -19.285156 2.328125 -20.5 2.328125 -22.28125 C 2.328125 -24.0625 2.335938 -26.085938 2.359375 -28.359375 C 2.390625 -30.640625 2.429688 -33.019531 2.484375 -35.5 C 2.535156 -37.988281 2.609375 -40.296875 2.703125 -42.421875 C 2.804688 -44.546875 2.921875 -46.359375 3.046875 -47.859375 C 3.171875 -49.367188 3.332031 -50.25 3.53125 -50.5 C 3.582031 -50.550781 3.734375 -50.664062 3.984375 -50.84375 C 4.234375 -51.019531 4.507812 -51.191406 4.8125 -51.359375 C 5.113281 -51.535156 5.390625 -51.695312 5.640625 -51.84375 C 5.890625 -52 6.0625 -52.101562 6.15625 -52.15625 C 8.46875 -53.457031 11 -54.582031 13.75 -55.53125 C 16.507812 -56.488281 19.238281 -56.96875 21.9375 -56.96875 C 24.25 -56.96875 26.34375 -56.503906 28.21875 -55.578125 C 30.09375 -54.648438 31.691406 -53.421875 33.015625 -51.890625 C 34.347656 -50.359375 35.363281 -48.578125 36.0625 -46.546875 C 36.769531 -44.523438 37.125 -42.4375 37.125 -40.28125 Z M 24.125 -38.546875 C 24.125 -39.554688 23.882812 -40.4375 23.40625 -41.1875 C 22.925781 -41.9375 22.140625 -42.3125 21.046875 -42.3125 C 20.085938 -42.3125 19.132812 -42.125 18.1875 -41.75 C 17.238281 -41.375 16.363281 -40.984375 15.5625 -40.578125 C 15.707031 -38.828125 15.84375 -37.125 15.96875 -35.46875 C 16.09375 -33.8125 16.101562 -32.109375 16 -30.359375 C 16.800781 -30.765625 17.675781 -31.226562 18.625 -31.75 C 19.582031 -32.28125 20.460938 -32.867188 21.265625 -33.515625 C 22.066406 -34.171875 22.742188 -34.910156 23.296875 -35.734375 C 23.847656 -36.554688 24.125 -37.492188 24.125 -38.546875 Z M 24.125 -38.546875 "/></g></g></g><g fill="#000000" fill-opacity="1"><g transform="translate(490.068878, 310.113819)"><g><path d="M 40.203125 -11.125 C 40.203125 -10.125 40.113281 -8.921875 39.9375 -7.515625 C 39.757812 -6.109375 39.421875 -4.765625 38.921875 -3.484375 C 38.421875 -2.210938 37.742188 -1.140625 36.890625 -0.265625 C 36.046875 0.609375 34.921875 1.046875 33.515625 1.046875 C 31.660156 1.046875 30.269531 0.375 29.34375 -0.96875 C 28.414062 -2.320312 27.75 -3.9375 27.34375 -5.8125 C 26.945312 -7.695312 26.710938 -9.613281 26.640625 -11.5625 C 26.566406 -13.519531 26.503906 -15.078125 26.453125 -16.234375 C 22.847656 -15.628906 19.289062 -15.101562 15.78125 -14.65625 C 15.675781 -13.5 15.460938 -12.066406 15.140625 -10.359375 C 14.816406 -8.660156 14.316406 -7.019531 13.640625 -5.4375 C 12.960938 -3.863281 12.082031 -2.5 11 -1.34375 C 9.925781 -0.195312 8.613281 0.375 7.0625 0.375 C 5.863281 0.375 4.925781 -0.0625 4.25 -0.9375 C 3.570312 -1.8125 3.054688 -2.847656 2.703125 -4.046875 C 2.347656 -5.253906 2.132812 -6.492188 2.0625 -7.765625 C 1.988281 -9.046875 1.953125 -10.113281 1.953125 -10.96875 C 1.953125 -13.820312 2.175781 -16.640625 2.625 -19.421875 C 3.082031 -22.203125 3.609375 -24.972656 4.203125 -27.734375 C 4.503906 -29.179688 4.90625 -30.878906 5.40625 -32.828125 C 5.90625 -34.785156 6.519531 -36.804688 7.25 -38.890625 C 7.976562 -40.972656 8.828125 -43.023438 9.796875 -45.046875 C 10.773438 -47.078125 11.890625 -48.894531 13.140625 -50.5 C 14.398438 -52.101562 15.832031 -53.40625 17.4375 -54.40625 C 19.039062 -55.40625 20.816406 -55.90625 22.765625 -55.90625 C 24.671875 -55.90625 26.320312 -55.476562 27.71875 -54.625 C 29.125 -53.78125 30.351562 -52.65625 31.40625 -51.25 C 32.457031 -49.84375 33.332031 -48.25 34.03125 -46.46875 C 34.738281 -44.695312 35.328125 -42.894531 35.796875 -41.0625 C 36.273438 -39.238281 36.675781 -37.445312 37 -35.6875 C 37.332031 -33.9375 37.625 -32.382812 37.875 -31.03125 C 38.53125 -27.78125 39.082031 -24.488281 39.53125 -21.15625 C 39.976562 -17.820312 40.203125 -14.476562 40.203125 -11.125 Z M 25.703125 -29.390625 C 25.703125 -29.984375 25.660156 -30.96875 25.578125 -32.34375 C 25.503906 -33.726562 25.34375 -35.109375 25.09375 -36.484375 C 24.84375 -37.859375 24.453125 -39.082031 23.921875 -40.15625 C 23.398438 -41.238281 22.691406 -41.78125 21.796875 -41.78125 C 21.296875 -41.78125 20.816406 -41.441406 20.359375 -40.765625 C 19.910156 -40.085938 19.507812 -39.234375 19.15625 -38.203125 C 18.8125 -37.179688 18.5 -36.046875 18.21875 -34.796875 C 17.945312 -33.546875 17.707031 -32.34375 17.5 -31.1875 C 17.300781 -30.03125 17.148438 -28.988281 17.046875 -28.0625 C 16.953125 -27.132812 16.878906 -26.472656 16.828125 -26.078125 C 19.835938 -26.328125 22.796875 -26.703125 25.703125 -27.203125 Z M 25.703125 -29.390625 "/></g></g></g><g fill="#000000" fill-opacity="1"><g transform="translate(532.904961, 310.113819)"><g><path d="M 38.921875 -39.53125 C 38.921875 -36.070312 38.117188 -32.960938 36.515625 -30.203125 C 34.921875 -27.453125 32.796875 -25.023438 30.140625 -22.921875 C 30.941406 -21.710938 31.765625 -20.304688 32.609375 -18.703125 C 33.460938 -17.109375 34.226562 -15.421875 34.90625 -13.640625 C 35.582031 -11.859375 36.132812 -10.078125 36.5625 -8.296875 C 36.988281 -6.523438 37.203125 -4.882812 37.203125 -3.375 C 37.203125 -1.78125 36.8125 -0.34375 36.03125 0.9375 C 35.257812 2.21875 33.945312 2.859375 32.09375 2.859375 C 30.539062 2.859375 29.195312 2.101562 28.0625 0.59375 C 26.9375 -0.90625 25.9375 -2.691406 25.0625 -4.765625 C 24.1875 -6.847656 23.382812 -8.96875 22.65625 -11.125 C 21.925781 -13.28125 21.238281 -15.007812 20.59375 -16.3125 C 19.6875 -16.007812 18.804688 -15.671875 17.953125 -15.296875 C 17.109375 -14.921875 16.234375 -14.554688 15.328125 -14.203125 C 15.273438 -13.097656 15.1875 -11.582031 15.0625 -9.65625 C 14.9375 -7.726562 14.660156 -5.8125 14.234375 -3.90625 C 13.816406 -2 13.179688 -0.347656 12.328125 1.046875 C 11.472656 2.453125 10.296875 3.15625 8.796875 3.15625 C 7.140625 3.15625 5.859375 2.476562 4.953125 1.125 C 4.054688 -0.226562 3.421875 -1.832031 3.046875 -3.6875 C 2.671875 -5.539062 2.457031 -7.429688 2.40625 -9.359375 C 2.351562 -11.285156 2.328125 -12.800781 2.328125 -13.90625 C 2.328125 -16.257812 2.375 -18.570312 2.46875 -20.84375 C 2.570312 -23.125 2.625 -25.445312 2.625 -27.8125 C 2.625 -29.957031 2.585938 -32.109375 2.515625 -34.265625 C 2.441406 -36.421875 2.40625 -38.601562 2.40625 -40.8125 C 2.40625 -41.3125 2.40625 -41.945312 2.40625 -42.71875 C 2.40625 -43.5 2.441406 -44.300781 2.515625 -45.125 C 2.585938 -45.957031 2.675781 -46.75 2.78125 -47.5 C 2.882812 -48.25 3.0625 -48.847656 3.3125 -49.296875 C 3.8125 -50.347656 4.945312 -51.347656 6.71875 -52.296875 C 8.5 -53.253906 10.453125 -54.09375 12.578125 -54.8125 C 14.710938 -55.539062 16.796875 -56.117188 18.828125 -56.546875 C 20.859375 -56.972656 22.375 -57.1875 23.375 -57.1875 C 25.925781 -57.1875 28.175781 -56.707031 30.125 -55.75 C 32.082031 -54.800781 33.710938 -53.515625 35.015625 -51.890625 C 36.316406 -50.265625 37.289062 -48.382812 37.9375 -46.25 C 38.59375 -44.125 38.921875 -41.882812 38.921875 -39.53125 Z M 25.03125 -38.484375 C 25.03125 -39.785156 24.726562 -40.769531 24.125 -41.4375 C 23.519531 -42.113281 22.539062 -42.453125 21.1875 -42.453125 C 20.1875 -42.453125 19.171875 -42.273438 18.140625 -41.921875 C 17.117188 -41.578125 16.179688 -41.179688 15.328125 -40.734375 C 15.523438 -36.773438 15.601562 -32.84375 15.5625 -28.9375 C 16.613281 -29.28125 17.6875 -29.726562 18.78125 -30.28125 C 19.882812 -30.832031 20.898438 -31.507812 21.828125 -32.3125 C 22.753906 -33.113281 23.519531 -34.015625 24.125 -35.015625 C 24.726562 -36.015625 25.03125 -37.171875 25.03125 -38.484375 Z M 25.03125 -38.484375 "/></g></g></g><g fill="#000000" fill-opacity="1"><g transform="translate(572.208936, 310.113819)"><g><path d="M 34.796875 -51.328125 C 34.796875 -50.078125 34.304688 -48.9375 33.328125 -47.90625 C 32.347656 -46.882812 31.171875 -45.984375 29.796875 -45.203125 C 28.421875 -44.421875 27.003906 -43.78125 25.546875 -43.28125 C 24.097656 -42.78125 22.894531 -42.429688 21.9375 -42.234375 C 21.539062 -38.378906 21.226562 -34.535156 21 -30.703125 C 20.78125 -26.867188 20.671875 -23.019531 20.671875 -19.15625 C 20.671875 -17.101562 20.71875 -15.070312 20.8125 -13.0625 C 20.914062 -11.0625 20.96875 -9.0625 20.96875 -7.0625 C 20.96875 -6.164062 20.878906 -5.175781 20.703125 -4.09375 C 20.523438 -3.019531 20.222656 -2.003906 19.796875 -1.046875 C 19.367188 -0.0976562 18.78125 0.695312 18.03125 1.34375 C 17.28125 2 16.351562 2.328125 15.25 2.328125 C 13.945312 2.328125 12.90625 1.960938 12.125 1.234375 C 11.351562 0.515625 10.753906 -0.367188 10.328125 -1.421875 C 9.898438 -2.472656 9.613281 -3.585938 9.46875 -4.765625 C 9.320312 -5.941406 9.25 -7.007812 9.25 -7.96875 C 9.144531 -10.96875 9.066406 -13.984375 9.015625 -17.015625 C 8.960938 -20.046875 8.9375 -23.09375 8.9375 -26.15625 C 8.9375 -28.707031 8.945312 -31.207031 8.96875 -33.65625 C 9 -36.113281 9.015625 -38.625 9.015625 -41.1875 C 8.316406 -41.082031 7.601562 -41.003906 6.875 -40.953125 C 6.144531 -40.898438 5.40625 -40.875 4.65625 -40.875 C 4.050781 -40.875 3.257812 -40.9375 2.28125 -41.0625 C 1.3125 -41.1875 0.378906 -41.410156 -0.515625 -41.734375 C -1.421875 -42.066406 -2.195312 -42.519531 -2.84375 -43.09375 C -3.5 -43.675781 -3.828125 -44.414062 -3.828125 -45.3125 C -3.828125 -46.8125 -3.238281 -48.125 -2.0625 -49.25 C -0.882812 -50.382812 0.613281 -51.363281 2.4375 -52.1875 C 4.269531 -53.019531 6.300781 -53.722656 8.53125 -54.296875 C 10.757812 -54.867188 12.960938 -55.316406 15.140625 -55.640625 C 17.316406 -55.972656 19.316406 -56.210938 21.140625 -56.359375 C 22.972656 -56.515625 24.394531 -56.59375 25.40625 -56.59375 C 26.351562 -56.59375 27.363281 -56.550781 28.4375 -56.46875 C 29.519531 -56.394531 30.535156 -56.179688 31.484375 -55.828125 C 32.441406 -55.484375 33.234375 -54.957031 33.859375 -54.25 C 34.484375 -53.550781 34.796875 -52.578125 34.796875 -51.328125 Z M 34.796875 -51.328125 "/></g></g></g><g fill="#000000" fill-opacity="1"><g transform="translate(600.841468, 310.113819)"><g><path d="M 36.140625 -51.703125 C 36.140625 -49.492188 35.851562 -47.0625 35.28125 -44.40625 C 34.707031 -41.757812 33.96875 -39.082031 33.0625 -36.375 C 32.164062 -33.664062 31.191406 -31.035156 30.140625 -28.484375 C 29.085938 -25.929688 28.109375 -23.675781 27.203125 -21.71875 C 26.703125 -20.613281 26.085938 -19.222656 25.359375 -17.546875 C 24.628906 -15.867188 23.8125 -14.078125 22.90625 -12.171875 C 22.007812 -10.265625 21.046875 -8.347656 20.015625 -6.421875 C 18.992188 -4.492188 17.929688 -2.765625 16.828125 -1.234375 C 15.734375 0.285156 14.609375 1.535156 13.453125 2.515625 C 12.296875 3.492188 11.144531 3.984375 10 3.984375 C 8.394531 3.984375 7.253906 3.394531 6.578125 2.21875 C 5.898438 1.039062 5.5625 -0.273438 5.5625 -1.734375 C 5.5625 -3.128906 5.796875 -4.613281 6.265625 -6.1875 C 6.742188 -7.769531 7.347656 -9.335938 8.078125 -10.890625 C 8.804688 -12.441406 9.609375 -13.941406 10.484375 -15.390625 C 11.359375 -16.847656 12.171875 -18.15625 12.921875 -19.3125 C 11.921875 -19.5625 10.941406 -20.007812 9.984375 -20.65625 C 9.035156 -21.3125 8.335938 -22.09375 7.890625 -23 C 7.085938 -24.75 6.257812 -26.722656 5.40625 -28.921875 C 4.5625 -31.128906 3.800781 -33.375 3.125 -35.65625 C 2.445312 -37.9375 1.878906 -40.21875 1.421875 -42.5 C 0.972656 -44.78125 0.75 -46.867188 0.75 -48.765625 C 0.75 -49.671875 0.847656 -50.660156 1.046875 -51.734375 C 1.253906 -52.816406 1.59375 -53.820312 2.0625 -54.75 C 2.539062 -55.675781 3.164062 -56.453125 3.9375 -57.078125 C 4.71875 -57.703125 5.6875 -58.015625 6.84375 -58.015625 C 8.144531 -58.015625 9.296875 -57.523438 10.296875 -56.546875 C 11.296875 -55.566406 12.179688 -54.328125 12.953125 -52.828125 C 13.734375 -51.328125 14.398438 -49.648438 14.953125 -47.796875 C 15.503906 -45.941406 15.976562 -44.113281 16.375 -42.3125 C 16.78125 -40.507812 17.109375 -38.851562 17.359375 -37.34375 C 17.609375 -35.84375 17.832031 -34.664062 18.03125 -33.8125 C 18.238281 -34.5625 18.578125 -35.703125 19.046875 -37.234375 C 19.523438 -38.765625 20.101562 -40.457031 20.78125 -42.3125 C 21.457031 -44.164062 22.234375 -46.066406 23.109375 -48.015625 C 23.984375 -49.972656 24.910156 -51.753906 25.890625 -53.359375 C 26.867188 -54.960938 27.90625 -56.273438 29 -57.296875 C 30.101562 -58.328125 31.234375 -58.84375 32.390625 -58.84375 C 33.140625 -58.84375 33.765625 -58.566406 34.265625 -58.015625 C 34.765625 -57.460938 35.148438 -56.8125 35.421875 -56.0625 C 35.703125 -55.3125 35.890625 -54.535156 35.984375 -53.734375 C 36.085938 -52.929688 36.140625 -52.253906 36.140625 -51.703125 Z M 36.140625 -51.703125 "/></g></g></g></svg>